<svg xmlns="http://www.w3.org/2000/svg" width="90.484" height="82.012" viewBox="0 0 90.484 82.012"><defs><style>.a{fill:#fff;}</style></defs><g transform="translate(0 -5.986)"><path class="a" d="M93.328,48.694l.954-.467a1.415,1.415,0,0,0-1.251-2.538l-.954.467a1.619,1.619,0,0,1-1.089,0l-.954-.467a1.415,1.415,0,1,0-1.251,2.538l.954.467a4.383,4.383,0,0,0,3.584,0Z" transform="translate(-25.79 -11.594)"/><path class="a" d="M87.655,36.414A1.414,1.414,0,0,0,86.241,35H83.414a1.414,1.414,0,0,0,0,2.828h2.828A1.414,1.414,0,0,0,87.655,36.414Z" transform="translate(-24.033 -8.504)"/><path class="a" d="M98.414,37.828h2.828a1.414,1.414,0,0,0,0-2.828H98.414a1.414,1.414,0,1,0,0,2.828Z" transform="translate(-28.43 -8.504)"/><path class="a" d="M89.071,58.307H83.416V51.323A5.21,5.21,0,0,0,78.05,46.29h-.29a4.509,4.509,0,0,1-4.743-4.241V40.634a14.138,14.138,0,0,0,6.864-11.777,7.592,7.592,0,0,0,2.538-4.164c.58-2.312.792-7.069-4.333-13.021C69.4,1.6,61.36,7.523,58.334,9.757c-.346.254-.643.474-.827.587a3.619,3.619,0,0,1-1.244.141c-2.679.049-5.655.622-6.949,6.808-1.859,8.709,1.732,12.894,2.5,13.679a14.138,14.138,0,0,0,6.928,9.9v1.195A4.528,4.528,0,0,1,54,46.3h-.573a5.21,5.21,0,0,0-5.358,5.019v6.984H37.184a14.138,14.138,0,0,0,.283-2.665A4.241,4.241,0,0,0,40.421,51.6V47.7a17.09,17.09,0,0,0-34.179,0v4.121A4.015,4.015,0,0,0,9.19,55.7a14.138,14.138,0,0,0,.283,2.609H1.414A1.414,1.414,0,0,0,0,59.721V86.584a1.414,1.414,0,0,0,2.828,0V61.135h7.55a14.216,14.216,0,0,0,5.952,6.617v1.195a4.528,4.528,0,0,1-4.743,4.241h-.573a5.21,5.21,0,0,0-5.358,5V85.17a1.414,1.414,0,0,0,1.414,1.414H39.587A1.414,1.414,0,0,0,41,85.17V78.179a5.21,5.21,0,0,0-5.365-5.026h-.29A4.509,4.509,0,0,1,30.6,68.911V67.5a14.209,14.209,0,0,0,5.655-6.426h51.4V86.52a1.414,1.414,0,1,0,2.828,0v-26.8A1.414,1.414,0,0,0,89.071,58.307ZM17.729,73.053A6.666,6.666,0,0,0,19.143,69a14.039,14.039,0,0,0,8.66-.085v.064a6.624,6.624,0,0,0,1.124,3.669C23.5,75.648,19.553,74.17,17.729,73.053Zm5.6-6.263a11.233,11.233,0,0,1-4.56-.968,1.414,1.414,0,0,0-.877-.445,11.311,11.311,0,0,1-5.874-9.9v-.064l.177-.085A8.441,8.441,0,0,0,19.85,60.28h6.475a8.483,8.483,0,0,0,7.691-5,4.242,4.242,0,0,0,.615.29A11.311,11.311,0,0,1,23.328,66.79ZM54.545,30.144c1.887-2.828,2.234-5.054,2.121-6.518A27.018,27.018,0,0,0,62.392,22.3a17.673,17.673,0,0,0,3.9-1.937h0q.467-.311.891-.643a10.547,10.547,0,0,0,4.948,3.577,11.176,11.176,0,0,0,3.117.544A8.349,8.349,0,0,0,76.558,28.3a4.786,4.786,0,0,0,.4.495,11.311,11.311,0,0,1-22.5,1.357Zm15.672,11.9h0L65.9,46.481l-4.241-4.319A13.983,13.983,0,0,0,70.217,42.048Zm-11.784,5.74a7.246,7.246,0,0,0,2.319-2.524l2.87,2.969-2.389,2.453Zm4.835,10.519,1.5-7.175,1.124-1.152.664.707,1.6,7.62Zm7.26-7.62-2.389-2.453,2.905-2.976a7.246,7.246,0,0,0,2.319,2.524Z" transform="translate(0 0)"/><path class="a" d="M41.449,6H18.828A2.828,2.828,0,0,0,16,8.828V21.552a2.828,2.828,0,0,0,2.828,2.828H41.449a2.828,2.828,0,0,0,2.828-2.828V20.244l6.362-3.831a1.414,1.414,0,0,0,0-2.418l-6.362-3.831V8.828A2.828,2.828,0,0,0,41.449,6ZM24.483,16.6A1.414,1.414,0,1,1,25.9,15.19,1.414,1.414,0,0,1,24.483,16.6Zm5.655,0a1.414,1.414,0,1,1,1.414-1.414A1.414,1.414,0,0,1,30.138,16.6Zm5.655,0a1.414,1.414,0,1,1,1.414-1.414A1.414,1.414,0,0,1,35.794,16.6Z" transform="translate(-4.689 -0.004)"/></g></svg>