<?xml version="1.0" encoding="utf-8"?>
<!-- Generator: Adobe Illustrator 23.0.3, SVG Export Plug-In . SVG Version: 6.00 Build 0)  -->
<svg version="1.1" id="Layer_1" xmlns="http://www.w3.org/2000/svg" xmlns:xlink="http://www.w3.org/1999/xlink" x="0px" y="0px"
	 viewBox="0 0 334.4 87.4" style="enable-background:new 0 0 334.4 87.4;" xml:space="preserve">
<style type="text/css">
	.st0{fill:url(#SVGID_1_);}
	.st1{fill:#FFFFFF;}
</style>
<g>
	
		<linearGradient id="SVGID_1_" gradientUnits="userSpaceOnUse" x1="0" y1="52.3" x2="79.5" y2="52.3" gradientTransform="matrix(1 0 0 -1 0 96)">
		<stop  offset="0" style="stop-color:#E54526"/>
		<stop  offset="1.322751e-02" style="stop-color:#EC6341"/>
		<stop  offset="0.9868" style="stop-color:#D01F3A"/>
	</linearGradient>
	<path class="st0" d="M0,29.3v28.8C0,63.5,2.9,68.3,7.4,71l24.9,14.4c4.6,2.7,10.3,2.7,14.8,0l25-14.4c4.6-2.7,7.4-7.5,7.4-12.9
		V29.3c0-5.4-2.9-10.2-7.4-12.9L47.1,2c-4.6-2.7-10.3-2.7-14.8,0L7.4,16.4C2.8,19.1,0,23.9,0,29.3z"/>
	<polygon class="st1" points="43.1,21.6 23.7,32.1 34.7,38.9 40.3,35.9 40,47.1 17.6,33.2 17.2,46.5 51.4,67.1 51.9,26.9 	"/>
</g>
<title>Asset 32</title>
<g>
	<g>
		<path class="st1" d="M208.9,76.1h-4.4v11.2h-1.6V76.1h-4.4v-1.4h10.3L208.9,76.1L208.9,76.1z"/>
		<path class="st1" d="M224.3,85.9v1.4h-8.6V74.7h8.4v1.4h-6.8v4.1h5.9v1.3h-5.9v4.4H224.3z"/>
		<path class="st1" d="M230.7,80.9c0-0.8,0.1-1.5,0.4-2.3c0.5-1.5,1.6-2.8,3.1-3.5c0.8-0.4,1.7-0.6,2.5-0.6c1,0,2,0.2,2.9,0.8
			c0.8,0.5,1.4,1.2,1.8,2l-1.3,0.8c-0.2-0.4-0.4-0.7-0.7-1s-0.5-0.5-0.9-0.7c-0.3-0.2-0.7-0.3-1-0.4s-0.7-0.1-1-0.1
			c-0.6,0-1.3,0.1-1.9,0.4c-0.5,0.3-1,0.7-1.4,1.1c-0.4,0.5-0.7,1-0.8,1.6c-0.2,0.6-0.3,1.2-0.3,1.8c0,0.6,0.1,1.3,0.3,1.9
			s0.5,1.1,0.9,1.6s0.9,0.8,1.4,1.1c0.5,0.3,1.1,0.4,1.7,0.4c0.3,0,0.7-0.1,1-0.1c0.4-0.1,0.7-0.2,1-0.4c0.3-0.2,0.6-0.4,0.9-0.7
			c0.3-0.3,0.5-0.6,0.7-1l1.3,0.7c-0.2,0.5-0.5,0.9-0.8,1.3c-0.4,0.4-0.8,0.7-1.2,0.9c-0.5,0.2-0.9,0.4-1.4,0.6
			c-0.5,0.1-1,0.2-1.5,0.2c-0.8,0-1.6-0.2-2.4-0.6c-0.7-0.4-1.4-0.9-1.9-1.5s-0.9-1.3-1.2-2.1C230.8,82.5,230.7,81.7,230.7,80.9z"/>
		<path class="st1" d="M258.8,74.7v12.6h-1.6v-5.8h-7v5.8h-1.6V74.7h1.6v5.5h7v-5.5H258.8z"/>
		<path class="st1" d="M276.3,87.3V74.7h1.6v11.2h7v1.4C284.9,87.3,276.3,87.3,276.3,87.3z"/>
		<path class="st1" d="M290.5,87.3l5.2-12.6h1.3l5.2,12.6h-1.7l-1.5-3.7h-5.3l-1.5,3.7H290.5z M296.3,76.5l-2.4,5.8h4.6L296.3,76.5z
			"/>
		<path class="st1" d="M318.5,84.1c0,0.9-0.4,1.8-1.1,2.4c-0.3,0.3-0.7,0.5-1.2,0.7s-1,0.2-1.4,0.2h-6V74.7h6.3
			c0.4,0,0.8,0.1,1.2,0.3c0.4,0.2,0.7,0.4,0.9,0.7c0.2,0.3,0.4,0.6,0.6,1c0.1,0.4,0.2,0.8,0.2,1.2c0,0.6-0.2,1.2-0.5,1.7
			s-0.8,0.9-1.3,1.2c0.7,0.2,1.3,0.6,1.7,1.2C318.3,82.6,318.5,83.3,318.5,84.1z M310.4,76.1v4.2h4c0.3,0,0.5-0.1,0.8-0.2
			c0.2-0.1,0.4-0.3,0.6-0.4c0.2-0.2,0.3-0.4,0.4-0.7c0.1-0.3,0.2-0.5,0.1-0.8c0-0.3,0-0.6-0.1-0.8c-0.1-0.2-0.2-0.5-0.4-0.7
			c-0.2-0.2-0.4-0.3-0.6-0.4s-0.5-0.2-0.7-0.2H310.4z M316.9,83.8c0-0.3-0.1-0.6-0.1-0.8c-0.1-0.3-0.2-0.5-0.4-0.7
			c-0.2-0.2-0.4-0.4-0.6-0.5s-0.5-0.2-0.8-0.2h-4.5v4.3h4.4c0.3,0,0.6-0.1,0.8-0.2c0.2-0.1,0.5-0.3,0.7-0.5s0.3-0.4,0.4-0.7
			C316.8,84.3,316.9,84,316.9,83.8L316.9,83.8z"/>
		<path class="st1" d="M333.2,77.3c-0.2-0.2-0.4-0.3-0.6-0.5c-0.3-0.2-0.5-0.3-0.8-0.4s-0.7-0.2-1-0.3c-0.3-0.1-0.7-0.1-1.1-0.1
			c-0.8-0.1-1.5,0.1-2.2,0.6c-0.5,0.4-0.7,0.9-0.7,1.5c0,0.3,0.1,0.6,0.2,0.9c0.1,0.2,0.4,0.4,0.6,0.6c0.3,0.2,0.7,0.3,1,0.4
			c0.4,0.1,0.9,0.3,1.5,0.4s1.2,0.3,1.8,0.5c0.5,0.2,0.9,0.4,1.4,0.7c0.4,0.3,0.6,0.6,0.9,1c0.2,0.5,0.3,0.9,0.3,1.4
			s-0.1,1.1-0.4,1.6c-0.2,0.4-0.6,0.8-1,1.1c-0.4,0.3-0.9,0.5-1.5,0.6s-1.2,0.2-1.8,0.2c-0.9,0-1.9-0.2-2.8-0.5
			c-0.8-0.3-1.6-0.7-2.3-1.3l0.8-1.4c0.2,0.2,0.5,0.4,0.7,0.6c0.3,0.2,0.7,0.4,1,0.5c0.4,0.2,0.8,0.3,1.3,0.4s0.9,0.2,1.4,0.2
			c0.7,0,1.5-0.1,2.1-0.5c0.5-0.3,0.8-0.9,0.7-1.4c0-0.3-0.1-0.6-0.2-0.9c-0.2-0.3-0.4-0.5-0.7-0.6c-0.4-0.2-0.8-0.4-1.1-0.5
			c-0.5-0.1-1-0.3-1.5-0.4c-0.6-0.1-1.1-0.3-1.7-0.5c-0.4-0.1-0.8-0.4-1.2-0.6c-0.3-0.2-0.6-0.5-0.7-0.9c-0.2-0.4-0.3-0.8-0.3-1.3
			c0-0.6,0.1-1.1,0.3-1.6c0.2-0.5,0.5-0.9,0.9-1.2c0.4-0.3,0.9-0.6,1.4-0.7c1.4-0.4,2.8-0.3,4.1,0.2c0.7,0.2,1.3,0.6,1.8,1
			L333.2,77.3z"/>
	</g>
	<path class="st1" d="M101.3,27.3l6.9,23l6.8-23h10l-12.9,35h-8l-13-35H101.3z"/>
	<path class="st1" d="M127.7,62.3v-35h16.1c1.6,0,3.3,0.4,4.7,1.1s2.7,1.6,3.7,2.8c1,1.1,1.9,2.5,2.4,3.9c0.6,1.4,0.9,2.9,0.9,4.4
		c0,2-0.4,3.9-1.3,5.7c-0.9,1.7-2.1,3.2-3.7,4.3l7.9,12.9h-10.9l-6.7-10.8h-3.6v10.7C137.2,62.3,127.7,62.3,127.7,62.3z M137.3,43.2
		h6.1c0.7,0,1.3-0.4,1.7-1c0.6-0.8,0.8-1.8,0.8-2.8c0.1-1-0.2-2-0.9-2.8c-0.4-0.6-1.1-0.9-1.8-1h-5.8v7.6H137.3z"/>
	<path class="st1" d="M161.5,62.3v-35h9.6v35H161.5z"/>
	<path class="st1" d="M177.2,62.3v-35h13.5c2.6-0.1,5.2,0.4,7.6,1.4c4.2,1.7,7.4,5.1,8.9,9.3c0.8,2.2,1.1,4.5,1.1,6.8
		c0,2.5-0.4,4.9-1.3,7.2c-0.8,2.1-2,4-3.6,5.5c-1.6,1.6-3.5,2.8-5.6,3.6c-2.3,0.9-4.8,1.3-7.3,1.3L177.2,62.3z M198.5,44.8
		c0-1.3-0.2-2.5-0.5-3.7c-0.3-1-0.9-2-1.6-2.9c-0.7-0.8-1.5-1.4-2.5-1.8c-1-0.5-2.2-0.7-3.3-0.7h-3.9V54h3.9c1.2,0,2.3-0.2,3.4-0.7
		c1-0.4,1.8-1.1,2.5-1.9c0.7-0.9,1.2-1.8,1.5-2.9C198.4,47.2,198.5,46,198.5,44.8z"/>
	<path class="st1" d="M212.6,62.3v-35h9.6v35H212.6z"/>
	<path class="st1" d="M237.8,45.1v17.2h-9.6v-35h7.5l14.1,17.8V27.3h9.6v35h-7.6L237.8,45.1z"/>
	<path class="st1" d="M275,45.1v17.2h-9.6v-35h7.5L287,45.1V27.3h9.6v35H289L275,45.1z"/>
	<path class="st1" d="M317.5,62.6c-2.4,0-4.7-0.5-6.8-1.5c-2-1-3.8-2.3-5.3-4s-2.6-3.6-3.4-5.7c-0.8-2.1-1.2-4.4-1.2-6.6
		c0-2.3,0.4-4.6,1.3-6.7c0.8-2.1,2-4,3.5-5.7c1.5-1.6,3.3-3,5.4-3.9c2.1-1,4.4-1.5,6.8-1.5s4.7,0.5,6.8,1.5c2,1,3.8,2.3,5.3,4
		c1.5,1.7,2.6,3.6,3.4,5.7c0.8,2.1,1.2,4.4,1.2,6.6c0,2.3-0.4,4.5-1.3,6.6c-0.8,2.1-2,4-3.5,5.6s-3.3,3-5.3,3.9
		C322.2,62.2,319.8,62.7,317.5,62.6z M310.5,44.9c0,1.2,0.1,2.3,0.4,3.4c0.2,1.1,0.7,2,1.3,2.9c0.6,0.8,1.3,1.5,2.2,2.1
		c2,1.1,4.3,1.1,6.3,0c0.9-0.5,1.6-1.3,2.2-2.1c0.6-0.9,1-1.9,1.3-3s0.4-2.3,0.4-3.4c0-1.2-0.1-2.3-0.4-3.4c-0.3-1-0.7-2-1.3-2.9
		c-0.6-0.8-1.3-1.5-2.2-2c-1-0.5-2-0.8-3.1-0.8s-2.2,0.2-3.1,0.8c-0.9,0.5-1.6,1.2-2.2,2.1c-0.6,0.9-1,1.9-1.3,3
		C310.6,42.6,310.5,43.7,310.5,44.9L310.5,44.9z"/>
</g>
</svg>
