<svg xmlns="http://www.w3.org/2000/svg" width="70" height="67.307" viewBox="0 0 70 67.307"><defs><style>.a{fill:#fff;}</style></defs><g transform="translate(69 8.846)"><path class="a" d="M-28.683,42.32V52.452L-5.72,33.41V23.6L-28.671,42.32Z" transform="translate(6.72 5.407)"/><path class="a" d="M-42.98,50.378h15.525V39.645H-42.98Z" transform="translate(4.337 8.082)"/><path class="a" d="M.91,9.257v-18.1H-.874l-2.9,2.49-12.395-.01V-8.845h-1.968l-2.83,2.476-10.51-.008V-8.845h-1.773l-2.8,2.464L-47.129-6.39V-8.845H-48.2l-20.7,18.1.007.008-.106.09V41.175h13.89V9.257h-9l16.4-14.54v.049l10.339.008L-53.955,9.354V41.175H-39.8V9.257h-8.655L-32.124-5.222l9.836.008-16.355,14.3V41.175h14.358l1.167-.952V9.257H-33.146L-16.829-5.211-5.12-5.2-21.964,9.257V39.279L1,20.549V9.257ZM-47.708-8.252l-.05-.024.05-.047Z" transform="translate(0 0)"/><path class="a" d="M-56.1,50.378h14.155V39.645H-56.1Z" transform="translate(2.149 8.082)"/><rect class="a" width="13.89" height="10.733" transform="translate(-69 47.726)"/></g></svg>