<svg xmlns="http://www.w3.org/2000/svg" width="75" height="85.918" viewBox="0 0 75 85.918"><defs><style>.a{fill:#fff;}</style></defs><g transform="translate(-12.5 -7.041)"><path class="a" d="M53.058,7.041,71.152,24.047,72.5,25.488V64.854l15,.976V9.8Z"/><path class="a" d="M47.5,8.552V19.3l16.018,4.036Z"/><path class="a" d="M37.5,78.027l30,7.471V29.452l-30-7.468Zm4.287-32.413,21.428,5.4v3.406l-21.428-5.4V45.614Zm0,6.806,21.428,5.413v3.408l-21.428-5.41V52.42Zm0,6.819,21.428,5.4v3.407l-21.428-5.4V59.239Zm0,6.816,21.428,5.4v3.408l-21.428-5.4V66.055Z"/><path class="a" d="M12.5,92.959l20-14.4V22.512l-20,14.416Z"/></g></svg>