<svg xmlns="http://www.w3.org/2000/svg" width="59.684" height="70.865" viewBox="0 0 59.684 70.865"><defs><style>.a{fill:#fff;}</style></defs><g transform="translate(-6.816 -3.596)"><g transform="translate(6.817 3.596)"><path class="a" d="M43.187,1007.961v2.2h12.2v2.083h-12.2v2.2h7.642v2.083H43.187v2.2h12.2v2.086h-12.2v2.2h7.642v2.086H43.187v2.2h12.2v2.086h-12.2v2.2h7.642v2.086H43.187v2.2h12.2v2.086h-12.2v2.2h5.777a84.753,84.753,0,0,0,9.66-1.3c.589-.12,1.046-.263,1.581-.393v-30.5H43.187Zm-26.834.2.034.028C16.375,1008.169,16.364,1008.167,16.352,1008.158Zm-1.333,2.127-8.2,2.307,1.367,4.861,8.2-2.307-1.364-4.861Zm16.8,6.475-3.809,7.059,7.554.017-3.745-7.076Zm-14.871.39-3.094.872,3.667,13.052,2.32,8.26c1.1.174,2.254.326,3.473.468l-2.51-8.935L17,1017.317l-.014-.038-.037-.128Zm-5.1,1.435-3.1.872.051.176.007.024,0,.021,3.643,12.93,1.55,5.505c.909.258,1.868.512,2.978.739.179.036.4.063.587.1l-2.056-7.313-3.667-13.052ZM27.5,1025.9l-.017,3.918-.034,10.386q1.6.123,3.273.21l.034-10.675.014-3.833H27.5Zm5.356.017-.014,3.83-.037,10.766c1.045.037,2.122.054,3.2.068l.031-11.034.014-3.623h-3.2Zm5.264,4.633-.031,10.061c1.029,0,2.008-.042,3.009-.064v-9.959q-1.47-.034-2.978-.038Zm-12.723.57c-.784.075-1.552.153-2.3.241l2.269,8.063.027-8.3Zm36.892,2.137v4.681a17.9,17.9,0,0,0,2.463-.929,5.559,5.559,0,0,0,1.448-.939c.271-.271.3-.414.3-.489,0,0,0,0,0-.017-.038-.153-.228-.527-1.048-1.024a15.641,15.641,0,0,0-3.158-1.289Zm-51.548.973a6.412,6.412,0,0,0-1.255.794,1.146,1.146,0,0,0-.366.475.576.576,0,0,0-.017.075c0,.075.028.218.3.489a5.566,5.566,0,0,0,1.448.939c.224.108.5.215.76.322l-.868-3.093Zm-.4,4.813,12.595,34.381a1.044,1.044,0,0,1,.064.36,8.845,8.845,0,0,0,.126,2.086,1.965,1.965,0,0,0,1.116,1.31c1.529.881,5.409,1.642,13.565,1.642s12.032-.76,13.561-1.642a1.965,1.965,0,0,0,1.116-1.31,8.846,8.846,0,0,0,.126-2.086,1.044,1.044,0,0,1,.064-.36l12.595-34.381a30.551,30.551,0,0,1-6.224,1.849,111.237,111.237,0,0,1-21.237,1.8,111.276,111.276,0,0,1-21.241-1.8,30.52,30.52,0,0,1-6.224-1.849Z" transform="translate(-6.817 -1007.958)"/></g></g></svg>