<svg xmlns="http://www.w3.org/2000/svg" xmlns:xlink="http://www.w3.org/1999/xlink" width="210.633" height="55.5" viewBox="0 0 210.633 55.5"><defs><style>.a{fill:url(#a);}.b,.c{fill:#fff;}.c{stroke:#fff;}</style><linearGradient id="a" y1="1.37" x2="1" y2="1.37" gradientUnits="objectBoundingBox"><stop offset="0" stop-color="#e34626"/><stop offset="0.01" stop-color="#ea6341"/><stop offset="0.99" stop-color="#cf1f3a"/></linearGradient></defs><g transform="translate(0)"><g transform="translate(0 0)"><path class="a" d="M0,18.407V36.5A9.436,9.436,0,0,0,4.615,44.59l15.529,9.046a9.036,9.036,0,0,0,9.23,0L44.965,44.59a9.329,9.329,0,0,0,4.615-8.11V18.407a9.436,9.436,0,0,0-4.615-8.1L29.374,1.244a8.98,8.98,0,0,0-9.23,0L4.615,10.3A9.329,9.329,0,0,0,0,18.407Z" transform="translate(0 0.032)"/><path class="b" d="M34.315,24.52,23.139,30.551,29.494,34.5l3.237-1.759-.168,6.467-12.928-8-.225,7.677L39.142,50.719l.274-23.125Z" transform="translate(-7.305 -8.993)"/><path class="c" d="M204.986,75.593h-2.744v6.985h-1V75.593H198.5V74.72h6.424Z" transform="translate(-73.774 -27.703)"/><path class="c" d="M221.063,81.711v.873H215.7V74.72h5.239v.873H216.7V78.15h3.68v.817H216.7v2.744Z" transform="translate(-80.172 -27.703)"/><path class="c" d="M230.7,78.52a3.9,3.9,0,0,1,.249-1.441,3.7,3.7,0,0,1,1.933-2.183,3.567,3.567,0,0,1,1.559-.368,3.118,3.118,0,0,1,1.809.5,3.081,3.081,0,0,1,1.123,1.247l-.811.5a2.238,2.238,0,0,0-.437-.624,1.94,1.94,0,0,0-.561-.437,2.608,2.608,0,0,0-.624-.249,2.12,2.12,0,0,0-.624-.062,2.7,2.7,0,0,0-1.185.249,4.711,4.711,0,0,0-.873.686,2.158,2.158,0,0,0-.5,1,3.529,3.529,0,0,0-.187,1.123,3.916,3.916,0,0,0,.187,1.185,3.161,3.161,0,0,0,.561,1,3.031,3.031,0,0,0,.873.686,2.052,2.052,0,0,0,1.06.249c.187,0,.437-.062.624-.062a1.87,1.87,0,0,0,.624-.249,3.431,3.431,0,0,0,.561-.437,2.239,2.239,0,0,0,.437-.624l.811.437a3.536,3.536,0,0,1-.5.811,2.931,2.931,0,0,1-.748.561c-.312.125-.561.249-.873.374a4.817,4.817,0,0,1-.935.125,3.324,3.324,0,0,1-1.5-.374,4.366,4.366,0,0,1-1.185-.935,4.484,4.484,0,0,1-.748-1.31,8.665,8.665,0,0,1-.125-1.372Z" transform="translate(-85.74 -27.63)"/><path class="c" d="M254.961,74.72v7.858h-1V78.961H249.6v3.617h-1V74.72h1v3.43h4.365V74.72Z" transform="translate(-92.394 -27.703)"/><path class="c" d="M276.3,82.584V74.72h1V81.7h4.366v.873Z" transform="translate(-102.464 -27.703)"/><path class="c" d="M290.5,82.588l3.243-7.858h.811l3.243,7.858h-1.06L295.8,80.28H292.5l-.935,2.308Zm3.617-6.735-1.5,3.617h2.869Z" transform="translate(-107.808 -27.706)"/><path class="c" d="M314.849,80.582a2,2,0,0,1-.686,1.5,2.058,2.058,0,0,1-.748.43,2.27,2.27,0,0,1-.873.125H308.8V74.72h3.929a1.59,1.59,0,0,1,.748.193,1.347,1.347,0,0,1,.561.43,6.1,6.1,0,0,1,.374.624,3.18,3.18,0,0,1,.125.748,2.1,2.1,0,0,1-.312,1.06,2.332,2.332,0,0,1-.811.748,1.871,1.871,0,0,1,1.06.748A2.32,2.32,0,0,1,314.849,80.582ZM309.8,75.593v2.619h2.495a1.466,1.466,0,0,0,.5-.125c.125-.056.25-.187.374-.249a.986.986,0,0,0,.249-.43.723.723,0,0,0,.062-.505,1.248,1.248,0,0,0-.062-.5,1.566,1.566,0,0,0-.249-.437,1.447,1.447,0,0,0-.374-.249,1.154,1.154,0,0,0-.437-.125Zm4.054,4.808c0-.187-.062-.374-.062-.5a.973.973,0,0,0-.25-.437,1.652,1.652,0,0,0-.374-.312,1.172,1.172,0,0,0-.5-.125H309.86v2.682H312.6a1.173,1.173,0,0,0,.5-.125,1.869,1.869,0,0,0,.436-.312,1,1,0,0,0,.25-.437c0-.125.062-.312.062-.437Z" transform="translate(-114.695 -27.703)"/><path class="c" d="M330,76.323c-.125-.125-.249-.187-.374-.312a1.871,1.871,0,0,0-.5-.249c-.187-.062-.437-.125-.624-.193a2.587,2.587,0,0,0-.686-.056,1.871,1.871,0,0,0-1.372.368,1.135,1.135,0,0,0-.437.935,1.87,1.87,0,0,0,.125.568,2.1,2.1,0,0,0,.374.368,2.633,2.633,0,0,0,.624.256c.249.056.561.187.936.249a7.54,7.54,0,0,1,1.123.312,5.657,5.657,0,0,1,.873.43,2.814,2.814,0,0,1,.561.624,2.234,2.234,0,0,1,.187.879,1.952,1.952,0,0,1-.25.992A2.158,2.158,0,0,1,329,82.553a6.86,6.86,0,0,1-1.123.125,5.725,5.725,0,0,1-1.746-.324,4.708,4.708,0,0,1-1.434-.811l.5-.873c.125.125.312.249.437.374a2.914,2.914,0,0,0,.624.312,3.119,3.119,0,0,0,.811.249,4.21,4.21,0,0,0,.873.125,2.4,2.4,0,0,0,1.31-.312.886.886,0,0,0,.437-.873,1.821,1.821,0,0,0-.125-.561.835.835,0,0,0-.437-.374,6.076,6.076,0,0,0-.686-.312c-.312-.062-.624-.187-.935-.249a6.813,6.813,0,0,1-1.06-.312,4.191,4.191,0,0,1-.749-.374,1,1,0,0,1-.436-.561,1.728,1.728,0,0,1-.187-.811,2.589,2.589,0,0,1,.187-1,1.7,1.7,0,0,1,.561-.748,2.3,2.3,0,0,1,.873-.437,3.979,3.979,0,0,1,2.557.125,3.268,3.268,0,0,1,1.123.624Z" transform="translate(-120.68 -27.678)"/><path class="b" d="M97.461,27.32l4.3,14.344,4.241-14.344h6.236L104.2,49.148H99.207L91.1,27.32Z" transform="translate(-33.824 -10.055)"/><path class="b" d="M127.7,49.148V27.32h10.041a6.748,6.748,0,0,1,2.931.686,7.247,7.247,0,0,1,2.307,1.746,7.546,7.546,0,0,1,1.5,2.432,7.021,7.021,0,0,1,.561,2.75,7.814,7.814,0,0,1-.811,3.555,7.365,7.365,0,0,1-2.308,2.682l4.927,8.045h-6.8l-4.178-6.735h-2.245v6.673Zm5.987-11.905h3.8a1.3,1.3,0,0,0,1.06-.624,2.863,2.863,0,0,0,.5-1.746,2.283,2.283,0,0,0-.561-1.746,1.578,1.578,0,0,0-1.123-.624h-3.617v4.74Z" transform="translate(-47.42 -10.054)"/><path class="b" d="M161.5,49.148V27.32h5.987V49.148Z" transform="translate(-60.024 -10.055)"/><path class="b" d="M177.2,49.144V27.316h8.419a11.226,11.226,0,0,1,4.74.873,9.785,9.785,0,0,1,5.55,5.787,13.129,13.129,0,0,1-.125,8.731,9.168,9.168,0,0,1-2.245,3.43,9.978,9.978,0,0,1-3.492,2.239,12.385,12.385,0,0,1-4.553.811ZM190.484,38.23a9.406,9.406,0,0,0-.312-2.307,5.763,5.763,0,0,0-1-1.809,4,4,0,0,0-1.559-1.123,4.7,4.7,0,0,0-2.058-.437h-2.432v11.4h2.432a4.989,4.989,0,0,0,2.12-.443,4.1,4.1,0,0,0,1.559-1.185,4.989,4.989,0,0,0,.935-1.809A7.553,7.553,0,0,0,190.484,38.23Z" transform="translate(-65.801 -10.05)"/><path class="b" d="M212.6,49.148V27.32h5.987V49.148Z" transform="translate(-79.017 -10.055)"/><path class="b" d="M234.187,38.421V49.148H228.2V27.32h4.677l8.793,11.1V27.32h5.987V49.148h-4.74Z" transform="translate(-84.738 -10.055)"/><path class="b" d="M271.387,38.421V49.148H265.4V27.32h4.677l8.793,11.1V27.32h5.987V49.148h-4.74Z" transform="translate(-98.362 -10.055)"/><path class="b" d="M311.215,49.222a9.8,9.8,0,0,1-4.241-.935,10.759,10.759,0,0,1-3.305-2.495,11.383,11.383,0,0,1-2.12-3.555,11.711,11.711,0,0,1-.748-4.116,10.657,10.657,0,0,1,.811-4.178,11.713,11.713,0,0,1,2.183-3.555,10.33,10.33,0,0,1,11.849-2.432,10.682,10.682,0,0,1,3.305,2.495A11.382,11.382,0,0,1,321.068,34a11.682,11.682,0,0,1,.748,4.11,10.316,10.316,0,0,1-.811,4.116,10.945,10.945,0,0,1-5.488,5.925A7.646,7.646,0,0,1,311.215,49.222Zm-4.366-11.032a7.9,7.9,0,0,0,.25,2.12,4.751,4.751,0,0,0,.811,1.809,5.506,5.506,0,0,0,1.372,1.31,4.01,4.01,0,0,0,3.929,0,4.584,4.584,0,0,0,1.372-1.31,6.306,6.306,0,0,0,.811-1.871,8.212,8.212,0,0,0,.249-2.12,7.9,7.9,0,0,0-.249-2.12,6.712,6.712,0,0,0-.811-1.809,4.366,4.366,0,0,0-1.372-1.247,4.247,4.247,0,0,0-1.933-.5,3.449,3.449,0,0,0-1.933.5,3.966,3.966,0,0,0-1.372,1.3,6.449,6.449,0,0,0-.811,1.871,5.519,5.519,0,0,0-.312,2.064Z" transform="translate(-111.684 -9.941)"/></g></g></svg>