<svg xmlns="http://www.w3.org/2000/svg" width="82" height="61" viewBox="0 0 82 61"><defs><style>.a{fill:#fff;}</style></defs><g transform="translate(-9 -24)"><path class="a" d="M9,80.308C9,82.888,10.8,85,13,85H87c2.2,0,4-2.112,4-4.692V42.769H9ZM65,55.438,63.6,53.8a2.548,2.548,0,0,1,0-3.285,1.744,1.744,0,0,1,2.8,0l10,11.731a2.548,2.548,0,0,1,0,3.285l-10,11.731a1.744,1.744,0,0,1-2.8,0,2.548,2.548,0,0,1,0-3.285L65,72.331l7.2-8.446Zm-22.7,19,12-23.462A1.828,1.828,0,0,1,57,50.16a2.7,2.7,0,0,1,.7,3.167l-12,23.462A2.032,2.032,0,0,1,44,77.962a1.729,1.729,0,0,1-1-.352A2.448,2.448,0,0,1,42.3,74.442Zm-18.7-12.2,10-11.731a1.744,1.744,0,0,1,2.8,0,2.548,2.548,0,0,1,0,3.285L35,55.438l-7.2,8.446L35,72.331l1.4,1.642a2.548,2.548,0,0,1,0,3.285,1.744,1.744,0,0,1-2.8,0l-10-11.731A2.548,2.548,0,0,1,23.6,62.242ZM87,24H13c-2.2,0-4,2.112-4,4.692v9.385H91V28.692C91,26.112,89.2,24,87,24ZM16.4,32.681a1.845,1.845,0,0,1-1.4.7h-.4c-.1,0-.2-.117-.4-.117-.1,0-.2-.117-.3-.235s-.2-.117-.3-.235a3.106,3.106,0,0,1-.6-1.76v-.469a3.948,3.948,0,0,1,.5-1.173c.1-.117.2-.235.3-.235s.2-.117.3-.235c.1,0,.2-.117.4-.117a2.044,2.044,0,0,1,1.8.587,2.192,2.192,0,0,1,.7,1.642A2.528,2.528,0,0,1,16.4,32.681Zm8,0a1.845,1.845,0,0,1-1.4.7h-.4c-.1,0-.2-.117-.4-.117-.1,0-.2-.117-.3-.235s-.2-.117-.3-.235a3.106,3.106,0,0,1-.6-1.76v-.469a3.948,3.948,0,0,1,.5-1.173c.1-.117.2-.235.3-.235s.2-.117.3-.235c.1,0,.2-.117.4-.117a2.044,2.044,0,0,1,1.8.587,2.192,2.192,0,0,1,.7,1.642A2.528,2.528,0,0,1,24.4,32.681Z" transform="translate(0 0)"/></g></svg>