<svg xmlns="http://www.w3.org/2000/svg" width="80.934" height="78.518" viewBox="0 0 80.934 78.518"><defs><style>.a{fill:#fff;}</style></defs><g transform="translate(-4 -2)"><path class="a" d="M80.6,12H74.817v4.832h4.336V45.823H9.781V16.832h4.336V12H8.336C5.879,12,4,13.57,4,15.624V54.279C4,56.332,5.879,57.9,8.336,57.9H80.6c2.457,0,4.336-1.57,4.336-3.624V15.624C84.934,13.57,83.055,12,80.6,12ZM44.467,53.071c-.867,0-1.445-.483-1.445-1.208s.578-1.208,1.445-1.208,1.445.483,1.445,1.208S45.334,53.071,44.467,53.071Z" transform="translate(0 10.865)"/><path class="a" d="M13,2V9.248H72.19V2ZM55.056,6.832c-.935,0-1.558-.483-1.558-1.208s.623-1.208,1.558-1.208,1.558.483,1.558,1.208S55.991,6.832,55.056,6.832Zm6.231,0c-.935,0-1.558-.483-1.558-1.208s.623-1.208,1.558-1.208,1.558.483,1.558,1.208S62.221,6.832,61.287,6.832Zm6.231,0c-.935,0-1.558-.483-1.558-1.208s.623-1.208,1.558-1.208,1.558.483,1.558,1.208S68.452,6.832,67.517,6.832Z" transform="translate(1.872)"/><path class="a" d="M36.8,24.562h7.731L40.665,21.3Z" transform="translate(15.608 10.524)"/><path class="a" d="M29.707,24.106V17.1L25.6,20.6Z" transform="translate(9.948 8.525)"/><path class="a" d="M45.707,24.106V17.1L41.6,20.6Z" transform="translate(17.318 8.525)"/><path class="a" d="M19,17.1v7.006l4.107-3.5Z" transform="translate(6.909 8.525)"/><path class="a" d="M20.8,24.562h7.731L24.665,21.3Z" transform="translate(7.994 10.524)"/><path class="a" d="M28.531,16H20.8l3.865,3.261Z" transform="translate(7.994 7.634)"/><path class="a" d="M13,10V44.91l6.386-3.262,6.231,2.416,4.673-2.416,6.075,2.416L42.6,41.649l6.231,2.416L54.9,41.649l4.673,2.416L65.8,41.649,72.19,44.91V10ZM41.037,34.159H19.231V31.743H41.037Zm0-4.832H19.231v-14.5H41.037ZM65.96,34.159H44.153V31.743H65.96Zm0-4.832H44.153v-14.5H65.96Z" transform="translate(1.872 1.664)"/><path class="a" d="M35,17.1v7.006l4.107-3.5Z" transform="translate(14.278 8.525)"/><path class="a" d="M44.531,16H36.8l3.865,3.261Z" transform="translate(15.608 7.634)"/><path class="a" d="M46.783,56.832H41.951V52h-14.5v4.832H22.624A3.559,3.559,0,0,0,19,60.456V64.08H50.407V60.456A3.559,3.559,0,0,0,46.783,56.832Z" transform="translate(9.763 16.438)"/></g></svg>