<svg xmlns="http://www.w3.org/2000/svg" xmlns:xlink="http://www.w3.org/1999/xlink" width="274" height="216" viewBox="0 0 274 216"><defs><style>.a{fill:none;}.b{clip-path:url(#a);}.c{fill:#1c1c1c;}.d,.e{fill:#fff;}.e{stroke:#fff;}.f{fill:url(#b);}</style><clipPath id="a"><rect class="a" width="274" height="216"/></clipPath><linearGradient id="b" y1="-0.586" x2="1" y2="-0.586" gradientUnits="objectBoundingBox"><stop offset="0" stop-color="#e34626"/><stop offset="0.01" stop-color="#ea6341"/><stop offset="0.99" stop-color="#cf1f3a"/></linearGradient></defs><g class="b"><rect class="c" width="274" height="216"/><g transform="translate(43.532 28.604)"><path class="d" d="M7.785,139.55l5.249,17.563L18.18,139.55h7.771l-9.858,26.8H9.976L0,139.55Z" transform="translate(0 -36.96)"/><path class="d" d="M38,166.346v-26.8H50.336a8.212,8.212,0,0,1,3.624.809,9.469,9.469,0,0,1,2.852,2.117,9.7,9.7,0,0,1,1.867,2.985,8.9,8.9,0,0,1,.684,3.382,9.557,9.557,0,0,1-1.022,4.359A8.9,8.9,0,0,1,55.5,156.51l6.021,9.836H53.24l-5.095-8.234H45.352v8.234Zm7.352-14.659H50a1.647,1.647,0,0,0,1.272-.735,3.4,3.4,0,0,0,.581-2.117,3.073,3.073,0,0,0-.676-2.139,1.941,1.941,0,0,0-1.36-.735H45.352Z" transform="translate(-10.064 -36.96)"/><path class="d" d="M73.27,166.346v-26.8h7.352v26.8Z" transform="translate(-19.405 -36.96)"/><path class="d" d="M89.56,166.345v-26.8H99.852a15.056,15.056,0,0,1,5.881,1.059,11.763,11.763,0,0,1,6.8,7.116,15.335,15.335,0,0,1,.875,5.2,15.019,15.019,0,0,1-.97,5.528,11.9,11.9,0,0,1-2.705,4.22,12.285,12.285,0,0,1-4.271,2.72,15.35,15.35,0,0,1-5.55.963ZM105.917,152.9a9.351,9.351,0,0,0-.412-2.838,6.477,6.477,0,0,0-1.191-2.205,5.4,5.4,0,0,0-1.933-1.36,6.006,6.006,0,0,0-2.529-.515H96.912v13.968h2.941a5.881,5.881,0,0,0,2.566-.529,5.234,5.234,0,0,0,1.911-1.47,6.572,6.572,0,0,0,1.169-2.205,9.4,9.4,0,0,0,.419-2.823Z" transform="translate(-23.719 -36.959)"/><path class="d" d="M126.4,166.346v-26.8h7.352v26.8Z" transform="translate(-33.476 -36.96)"/><path class="d" d="M150.062,153.187v13.159H142.71v-26.8h5.742l10.77,13.637V139.55h7.352v26.8h-5.881Z" transform="translate(-37.796 -36.96)"/><path class="d" d="M188.812,153.187v13.159H181.46v-26.8h5.734l10.77,13.637V139.55h7.352v26.8h-5.881Z" transform="translate(-48.059 -36.96)"/><path class="d" d="M231.036,166.54a11.623,11.623,0,0,1-5.234-1.169,13.233,13.233,0,0,1-4.043-3.08,14.424,14.424,0,0,1-3.529-9.425,13.762,13.762,0,0,1,.963-5.1,13.505,13.505,0,0,1,2.7-4.323,13.269,13.269,0,0,1,4.1-2.985,12,12,0,0,1,5.19-1.117,11.645,11.645,0,0,1,5.234,1.169,13.056,13.056,0,0,1,4.043,3.1,14.041,14.041,0,0,1,2.588,4.411,14.424,14.424,0,0,1,.9,5.021,13.74,13.74,0,0,1-.963,5.08,13.9,13.9,0,0,1-2.661,4.308,13.13,13.13,0,0,1-4.08,3.007A12.049,12.049,0,0,1,231.036,166.54Zm-5.33-13.6a10.7,10.7,0,0,0,.323,2.625,6.8,6.8,0,0,0,1,2.25,5.47,5.47,0,0,0,1.7,1.588,4.587,4.587,0,0,0,2.382.6,4.521,4.521,0,0,0,2.419-.625,5.146,5.146,0,0,0,1.661-1.625,7.623,7.623,0,0,0,.963-2.286,10.7,10.7,0,0,0,.323-2.6,9.961,9.961,0,0,0-.346-2.624,7.293,7.293,0,0,0-1-2.205,5.058,5.058,0,0,0-1.684-1.544,4.683,4.683,0,0,0-2.375-.588,4.631,4.631,0,0,0-2.4.6,5.256,5.256,0,0,0-1.661,1.61,7.234,7.234,0,0,0-.978,2.264A10.528,10.528,0,0,0,225.707,152.94Z" transform="translate(-57.797 -36.904)"/><path class="e" d="M18.832,195.047h-5.72v14.7h-2.1v-14.7H5.29V193.18H18.832Z" transform="translate(-1.401 -51.164)"/><path class="e" d="M47.125,207.89v1.867H35.87V193.18H46.9v1.867H37.973V200.4h7.771v1.75H37.973v5.719Z" transform="translate(-9.5 -51.164)"/><path class="e" d="M62.7,201.306a8.822,8.822,0,0,1,.529-2.977,8.234,8.234,0,0,1,1.536-2.661,7.807,7.807,0,0,1,2.485-1.933A7.543,7.543,0,0,1,70.588,193a6.969,6.969,0,0,1,3.808,1,6.264,6.264,0,0,1,2.36,2.676l-1.661,1.073a4.646,4.646,0,0,0-.9-1.331,4.352,4.352,0,0,0-1.139-.86,4.977,4.977,0,0,0-1.279-.47,5.925,5.925,0,0,0-1.279-.14,5.051,5.051,0,0,0-2.441.573,5.668,5.668,0,0,0-1.786,1.47,6.469,6.469,0,0,0-1.088,2.08,7.888,7.888,0,0,0-.36,2.323,7.212,7.212,0,0,0,.434,2.485,6.969,6.969,0,0,0,1.2,2.088,5.881,5.881,0,0,0,1.823,1.47,4.918,4.918,0,0,0,2.286.537,5.749,5.749,0,0,0,1.345-.162,4.941,4.941,0,0,0,1.316-.529,5.727,5.727,0,0,0,1.184-.912,4.477,4.477,0,0,0,.9-1.316l1.75.956a5.146,5.146,0,0,1-1.11,1.647,6.881,6.881,0,0,1-1.61,1.206,8.2,8.2,0,0,1-1.9.735,7.654,7.654,0,0,1-1.956.257,6.7,6.7,0,0,1-3.132-.735,8.4,8.4,0,0,1-2.463-1.956,8.917,8.917,0,0,1-1.61-2.727,8.822,8.822,0,0,1-.573-3.132Z" transform="translate(-16.606 -51.115)"/><path class="e" d="M108.038,193.18v16.578h-2.088v-7.543H96.813v7.543h-2.1V193.18h2.1v7.168h9.138V193.18Z" transform="translate(-25.083 -51.164)"/><path class="e" d="M144,209.758V193.18h2.1v14.7h9.248v1.867Z" transform="translate(-38.138 -51.164)"/><path class="e" d="M169.27,209.758l6.815-16.578h1.728l6.8,16.578h-2.205l-1.963-4.852h-6.962l-1.941,4.852Zm7.682-14.144-3.08,7.653h6.065Z" transform="translate(-44.83 -51.164)"/><path class="e" d="M214.755,205.486a3.94,3.94,0,0,1-.382,1.75,4.051,4.051,0,0,1-1.051,1.353,4.881,4.881,0,0,1-1.544.867,5.793,5.793,0,0,1-1.875.3H202V193.18h8.241a3.242,3.242,0,0,1,1.566.375,3.845,3.845,0,0,1,1.22.963,4.286,4.286,0,0,1,.735,1.353,4.5,4.5,0,0,1-.346,3.815,3.742,3.742,0,0,1-1.764,1.566,4.175,4.175,0,0,1,2.25,1.551,4.411,4.411,0,0,1,.853,2.683ZM204.132,195v5.536h5.278a2.4,2.4,0,0,0,1.029-.221,2.683,2.683,0,0,0,.8-.6,2.86,2.86,0,0,0,.537-.875,2.889,2.889,0,0,0,.2-1.066,3.147,3.147,0,0,0-.184-1.1,2.838,2.838,0,0,0-.507-.89,2.139,2.139,0,0,0-.735-.581,2.331,2.331,0,0,0-.97-.213Zm8.5,10.108a3.132,3.132,0,0,0-.735-2.007,2.617,2.617,0,0,0-.809-.632,2.242,2.242,0,0,0-1.022-.228h-5.933v5.69H209.9a2.515,2.515,0,0,0,1.073-.228,3.286,3.286,0,0,0,.86-.618,2.764,2.764,0,0,0,.581-.9,2.793,2.793,0,0,0,.213-1.073Z" transform="translate(-53.499 -51.163)"/><path class="e" d="M241.594,196.637a3.147,3.147,0,0,0-.735-.632,6.137,6.137,0,0,0-1.051-.551,7.354,7.354,0,0,0-1.272-.4,6.968,6.968,0,0,0-1.47-.147,4.5,4.5,0,0,0-2.838.735,2.426,2.426,0,0,0-.9,1.985,2.205,2.205,0,0,0,.257,1.117,2.088,2.088,0,0,0,.809.735,6.146,6.146,0,0,0,1.36.544c.544.154,1.191.323,1.941.493a20.887,20.887,0,0,1,2.323.64,6.668,6.668,0,0,1,1.772.9,3.587,3.587,0,0,1,1.125,1.3,4.212,4.212,0,0,1,.382,1.9,4.367,4.367,0,0,1-.463,2.066,4.161,4.161,0,0,1-1.279,1.47,5.587,5.587,0,0,1-1.9.845,10.19,10.19,0,0,1-2.382.265,10.968,10.968,0,0,1-3.632-.6,10.064,10.064,0,0,1-3.117-1.735l1-1.779a5.616,5.616,0,0,0,.97.794,7.808,7.808,0,0,0,1.353.735,9.716,9.716,0,0,0,1.639.515,8.219,8.219,0,0,0,1.831.2,5.036,5.036,0,0,0,2.757-.632,2.323,2.323,0,0,0,.662-3.066,2.61,2.61,0,0,0-.919-.831,6.955,6.955,0,0,0-1.47-.618c-.6-.176-1.279-.36-2.044-.551a19.5,19.5,0,0,1-2.205-.654,6.014,6.014,0,0,1-1.6-.838,3.161,3.161,0,0,1-.97-1.191,4.021,4.021,0,0,1-.323-1.684,4.749,4.749,0,0,1,.441-2.1,4.352,4.352,0,0,1,1.235-1.544,5.476,5.476,0,0,1,1.9-.948,8.728,8.728,0,0,1,2.382-.309,8.256,8.256,0,0,1,5.433,1.889Z" transform="translate(-61.055 -51.136)"/><path class="f" d="M74.87,28.611V56.7a14.7,14.7,0,0,0,7.219,12.586l24.3,14.049a14.152,14.152,0,0,0,14.438,0L145.21,69.288A14.446,14.446,0,0,0,152.429,56.7V28.611a14.7,14.7,0,0,0-7.219-12.586L120.825,1.977a14.152,14.152,0,0,0-14.438,0L82.126,16.026A14.46,14.46,0,0,0,74.87,28.611Z" transform="translate(-19.829 -3)"/><path class="d" d="M123.952,32.55l-17.489,9.425,9.947,6.175,5.058-2.742-.257,10.116L100.978,43l-.338,12L131.494,73.52l.434-36.17Z" transform="translate(-26.654 -11.622)"/></g></g></svg>